# xmcd
#
# Track frame offsets:
#	150
#	10067
#	24695
#	38997
#	52245
#	66807
#	75850
#	89004
#	98480
#	109949
#	119438
#
# Disc length: 1795 seconds
#
# Revision: 1
# Processed by: cddbd v1.4PL0 Copyright (c) Steve Scherf et al.
# Submitted via: audiograbber 1.81.03
#
DISCID=8907010b
DTITLE=Bobbie Gentry and Glen Campbell - Bobbie Gentry and Glen Campbell
DYEAR=1968
DGENRE=Country
TTITLE0=Less of Me
TTITLE1=Little Green Apples
TTITLE2=Gentle on My Mind
TTITLE3=Heart to Heart Talk
TTITLE4=My Elusive Dreams
TTITLE5=(It's Only Your) Imagination
TTITLE6=Mornin' Glory
TTITLE7=Terrible Tangled Web
TTITLE8=Sunday Mornin'
TTITLE9=Let It Be Me
TTITLE10=Scarborough Fair/Canticle
EXTD=from vinyl
EXTT0=
EXTT1=
EXTT2=
EXTT3=
EXTT4=
EXTT5=
EXTT6=
EXTT7=
EXTT8=
EXTT9=
EXTT10=
PLAYORDER=
